<?xml version="1.0" encoding="UTF-8"?>
<!-- Generator: Adobe Illustrator 19.2.0, SVG Export Plug-In . SVG Version: 6.00 Build 0)  -->
<!DOCTYPE svg PUBLIC "-//W3C//DTD SVG 1.1//EN" "http://www.w3.org/Graphics/SVG/1.1/DTD/svg11.dtd">
<svg version="1.1" id="Artwork" xmlns="http://www.w3.org/2000/svg" xmlns:xlink="http://www.w3.org/1999/xlink" x="0px" y="0px" viewBox="0 0 120 45" style="enable-background:new 0 0 120 45;" xml:space="preserve">
<style type="text/css">
	.st0{fill-rule:evenodd;clip-rule:evenodd;fill:#FFFFFF;}
	.st1{fill:#FFFFFF;}
	.st2{fill:#9E1D20;}
	.st3{fill:#122649;}
</style>
<g>
	<path class="st0" d="M26.4,1.9c-1.8,0.3-4,0.8-6.3,1.6C14,5.6,9.2,9.2,5.8,14C2,19.5,0.3,26,0.9,33.5l0,0.1c0,0,0,0.1,0,0.1   c0.1,2.4,0.7,5.6,1.6,8.4c0.6,1.4,1.1,1.8,2.6,1.8c0.9,0,2.4-0.1,4.2-0.4c5.8-0.9,15-3.8,20.9-12.4c3.7-5.4,5.4-11.7,4.9-18.9   c0,0,0-0.1,0-0.1l0,0c-0.3-4.1-1.2-7.5-1.9-9C32.6,1.5,31.9,1,26.4,1.9z"/>
	<g>
		<g>
			<g>
				<g>
					<path class="st1" d="M41.3,40.1h-2.4v-9.9h7.8l-1,1.9h-4.4v2.2h4l-1,1.9h-3.1V40.1z"/>
					<path class="st1" d="M52.5,40.4c-0.9,0-1.7-0.1-2.3-0.3c-0.6-0.2-1.1-0.4-1.5-0.8c-0.4-0.4-0.6-0.8-0.8-1.4       c-0.2-0.6-0.2-1.2-0.2-2v-1.4c0-0.8,0.1-1.4,0.2-2c0.1-0.6,0.4-1,0.8-1.4c0.4-0.4,0.9-0.6,1.5-0.8c0.6-0.2,1.4-0.3,2.3-0.3       c0.9,0,1.7,0.1,2.3,0.3c0.6,0.2,1.1,0.4,1.5,0.8c0.4,0.4,0.6,0.8,0.8,1.4c0.2,0.6,0.2,1.2,0.2,2v1.4c0,0.8-0.1,1.4-0.2,2       c-0.1,0.6-0.4,1-0.8,1.4c-0.4,0.4-0.9,0.7-1.5,0.8C54.2,40.3,53.4,40.4,52.5,40.4z M52.5,38.5c0.5,0,0.8,0,1.1-0.1       c0.3-0.1,0.5-0.2,0.7-0.4c0.2-0.2,0.3-0.5,0.3-0.8c0.1-0.3,0.1-0.8,0.1-1.3v-1.4c0-0.5,0-1-0.1-1.3c-0.1-0.3-0.2-0.6-0.3-0.8       c-0.2-0.2-0.4-0.3-0.7-0.4c-0.3-0.1-0.7-0.1-1.1-0.1c-0.5,0-0.8,0-1.1,0.1c-0.3,0.1-0.5,0.2-0.7,0.4c-0.2,0.2-0.3,0.5-0.3,0.8       c-0.1,0.3-0.1,0.8-0.1,1.3v1.4c0,0.5,0,1,0.1,1.3c0.1,0.3,0.2,0.6,0.3,0.8c0.2,0.2,0.4,0.3,0.7,0.4       C51.6,38.4,52,38.5,52.5,38.5z"/>
					<path class="st1" d="M64,40.4c-0.9,0-1.7-0.1-2.3-0.3c-0.6-0.2-1.1-0.4-1.5-0.8c-0.4-0.4-0.6-0.8-0.8-1.4       c-0.2-0.6-0.2-1.2-0.2-2v-1.4c0-0.8,0.1-1.4,0.2-2c0.1-0.6,0.4-1,0.8-1.4c0.4-0.4,0.9-0.6,1.5-0.8c0.6-0.2,1.4-0.3,2.3-0.3       c0.9,0,1.7,0.1,2.3,0.3c0.6,0.2,1.1,0.4,1.5,0.8c0.4,0.4,0.6,0.8,0.8,1.4c0.2,0.6,0.2,1.2,0.2,2v1.4c0,0.8-0.1,1.4-0.2,2       c-0.1,0.6-0.4,1-0.8,1.4c-0.4,0.4-0.9,0.7-1.5,0.8C65.7,40.3,65,40.4,64,40.4z M64,38.5c0.5,0,0.8,0,1.1-0.1       c0.3-0.1,0.5-0.2,0.7-0.4c0.2-0.2,0.3-0.5,0.3-0.8c0.1-0.3,0.1-0.8,0.1-1.3v-1.4c0-0.5,0-1-0.1-1.3c-0.1-0.3-0.2-0.6-0.3-0.8       c-0.2-0.2-0.4-0.3-0.7-0.4c-0.3-0.1-0.7-0.1-1.1-0.1c-0.5,0-0.8,0-1.1,0.1c-0.3,0.1-0.5,0.2-0.7,0.4c-0.2,0.2-0.3,0.5-0.3,0.8       c-0.1,0.3-0.1,0.8-0.1,1.3v1.4c0,0.5,0,1,0.1,1.3c0.1,0.3,0.2,0.6,0.3,0.8c0.2,0.2,0.4,0.3,0.7,0.4       C63.2,38.4,63.6,38.5,64,38.5z"/>
					<path class="st1" d="M79.5,30.2l-1,1.9h-2.6v8h-2.4v-8h-3.4v-1.9H79.5z"/>
					<path class="st1" d="M81.3,30.2h4.8c1.1,0,1.9,0.2,2.4,0.6c0.5,0.4,0.8,1,0.8,1.9v0.2c0,1-0.4,1.7-1.3,2       c0.5,0.2,0.9,0.4,1.2,0.8c0.3,0.4,0.4,0.9,0.4,1.5v0.2c0,1-0.3,1.7-0.9,2.1c-0.6,0.4-1.5,0.6-2.7,0.6h-4.7V30.2z M83.6,32v2.2       h2.1c0.5,0,0.8-0.1,1-0.3c0.2-0.2,0.3-0.4,0.3-0.8v-0.2c0-0.3-0.1-0.6-0.3-0.7C86.5,32,86.2,32,85.7,32H83.6z M83.6,38.4h2.2       c0.5,0,0.9-0.1,1.1-0.2c0.2-0.2,0.3-0.5,0.3-0.9v-0.2c0-0.4-0.1-0.8-0.3-0.9c-0.2-0.2-0.6-0.3-1.1-0.3h-2.2V38.4z"/>
					<path class="st1" d="M97.9,37.7h-3.8l-0.8,2.4h-2.5l3.8-9.9h2.9l3.8,9.9h-2.6L97.9,37.7z M94.8,35.9h2.6L96,32.2L94.8,35.9z"/>
					<path class="st1" d="M105.5,30.2v8h4.9l-1,1.9h-6.4v-9.9H105.5z"/>
					<path class="st1" d="M114.7,30.2v8h4.9l-1,1.9h-6.4v-9.9H114.7z"/>
				</g>
			</g>
			<g>
				<path class="st2" d="M34,11.8L34,11.8c-0.1,0.1-0.1,0.2-0.1,0.4c0,0,0,0.1-0.1,0.1c0,0.1-0.1,0.2-0.1,0.2c0,0.1-0.1,0.1-0.1,0.2      c0,0.1-0.1,0.1-0.1,0.2c0,0.1-0.1,0.2-0.1,0.3c0,0,0,0.1-0.1,0.1c-0.1,0.1-0.1,0.2-0.2,0.3c0,0,0,0,0,0.1      c-0.1,0.1-0.1,0.2-0.2,0.3c0,0,0,0,0,0c-0.1,0.1-0.1,0.2-0.2,0.3c-0.1,0.1-0.1,0.2-0.2,0.3L32.5,15C29.3,26,19.4,31.6,8,32.2      c-1.9,0.1-3.9,0.1-5.9-0.1c0.1,1.2,0.2,2.6,0.4,3.6c1.7,0.1,3.4,0.1,5,0c10.1-0.7,19.4-6,23.9-13.4c-3,7.3-9.2,14.5-24.2,16.1      c-1.4,0.1-2.8,0.3-4.3,0.3c0.2,1.4,0.8,3.1,1.2,3.6c0.8,0.1,1.8,0.1,3,0C16.2,41.6,35.4,34.9,34,11.8z"/>
			</g>
			<g>
				<path class="st3" d="M34,11.8C34,11.8,34,11.8,34,11.8c-0.3-5.2-1.9-8.7-2.4-9c-0.1-0.1-0.2-0.1-0.4-0.2      c-0.7-0.2-2.1-0.1-4.3,0.2c-6.1,1-10.9,3.2-14.5,6c0.7-0.2,1.5-0.4,2.3-0.5c1.8-1.3,4.3-2.1,4.3-2.1c-1.1,1-1.9,2-1.9,2      c1.6,0,3.6,0.7,3.6,0.7c-2.4,0.3-5,1.2-5,1.2c-0.3,0.6-0.8,2.7-0.8,2.7l-1.5-1.6c0,0-2.8,1.2-3.8,2.1c0,0,1.1-1.7,2.9-3.2      l-0.9-0.7c-4.2,3.5-6.7,7.8-8.1,11.9c0.4-0.2,0.9-0.4,1.5-0.6c0.6-1.4,1.1-2.2,2.1-3.6c-0.2,1.2-0.4,3.2-0.4,3.2      s1.7-0.2,3.3-0.1c0,0-2.2,1.2-3.4,2.4c0,0,0.1,2.1,0.2,3.9c-0.7-1-1.1-1.5-1.7-2.4c-0.8,1-1.1,1.4-1.6,2.2      C3.9,25,4,24.3,4.5,22.9l-1-0.8C2.7,24.6,2.3,27,2.3,29c0.3,0,0.7,0,1,0.1c0.5,0,1.1,0,1.7,0.1c0.4,0,0.9,0,1.3,0c0,0,0,0,0,0      c0.7,0,1.4,0,2.2-0.1c4.4-0.3,10.1-1.4,15.2-4.8c0,0,5.4-3.7,8.6-9.3c0-0.1,0.1-0.1,0.1-0.2c0.1-0.1,0.1-0.2,0.2-0.3      c0.1-0.1,0.1-0.2,0.2-0.3c0,0,0,0,0,0c0.1-0.1,0.1-0.2,0.2-0.3c0,0,0,0,0-0.1c0.1-0.1,0.1-0.2,0.2-0.3c0,0,0-0.1,0.1-0.1      c0-0.1,0.1-0.2,0.1-0.3c0-0.1,0.1-0.1,0.1-0.2c0-0.1,0.1-0.1,0.1-0.2c0-0.1,0.1-0.2,0.1-0.2c0,0,0-0.1,0.1-0.1      C33.9,12.1,34,12,34,11.8C34,11.8,34,11.8,34,11.8z M22.2,19.5c0,0-0.5,2.1-1.3,3.7c0,0-0.9-2.1-1.7-3.4      c-1.9,0.3-4.7,1.3-4.7,1.3c1.5-1.8,3.4-3.2,3.4-3.2c-1.1-1.5-2.7-2.8-2.7-2.8s2.5,0,5.1,0.9c1.5-1,3.4-2,3.4-2s-0.2,1.7-0.6,3.1      c2.4,1.2,3.6,2.5,3.6,2.5C24.8,19.4,22.2,19.5,22.2,19.5z M29.7,10.6l-0.4,3.6c0,0-0.9-2.5-1.5-3.8c0,0-2-0.2-3.8,0.1l3-2.2      c-0.5-1.2-1.4-2.2-1.4-2.2s1.7,0.2,3,1.1c1-0.7,2.1-1.4,2.1-1.4l-0.6,2.8c1,1.1,1.8,3.1,1.8,3.1S30.8,10.9,29.7,10.6z"/>
			</g>
			<g>
				<path class="st1" d="M38.8,5.7h5.8v12.5c0,2.6,0.9,3.6,3.3,3.6h5.8c2.4,0,3.3-1,3.3-3.6V5.7h5.8v13.1c0,5-2.4,7.5-7.8,7.5h-8.3      c-5.4,0-7.8-2.4-7.8-7.5V5.7z"/>
				<path class="st1" d="M101.1,5.7h7.6l10.4,20.5h-6.5l-1.8-3.6H99.1l-1.7,3.6h-6.5L101.1,5.7z M101.2,18.1h7.5l-3.8-7.7      L101.2,18.1z"/>
			</g>
		</g>
		<path class="st1" d="M74.3,10.2C74.3,10.2,74.3,10.2,74.3,10.2L74.3,10.2h21l2.3-4.6H74.3c-6.8,0-8.1,2.3-8.1,6.3    c0,4.5,1.3,6.3,8.1,6.3H82c0,0,0,0,0,0c1,0,1.7,0.8,1.7,1.7c0,1-0.8,1.7-1.7,1.7c0,0-16.5,0-16.5,0l-2.3,4.6h19.4    c5.1,0,7.5-1.3,7.5-6.3c0-5-2.4-6.3-7.5-6.3h-8.4l0,0c0,0,0,0,0,0c-1,0-1.7-0.8-1.7-1.7C72.5,10.9,73.3,10.2,74.3,10.2z"/>
	</g>
	<g>
		<path class="st1" d="M116.2,6.4c0-0.4-0.3-0.7-0.8-0.7h-0.9v2.4h0.5V7.1h0.3l0.5,0.9h0.5l-0.5-1C116.1,7,116.2,6.7,116.2,6.4z     M115.4,6.7H115V6.1h0.4c0.2,0,0.3,0.1,0.3,0.3C115.8,6.6,115.6,6.7,115.4,6.7z"/>
		<path class="st1" d="M115.3,4.8c-1.2,0-2.2,1-2.2,2.2c0,1.2,1,2.2,2.2,2.2c1.2,0,2.2-1,2.2-2.2C117.5,5.8,116.5,4.8,115.3,4.8z     M115.3,8.7c-1,0-1.8-0.8-1.8-1.8c0-1,0.8-1.8,1.8-1.8c1,0,1.8,0.8,1.8,1.8C117.1,7.9,116.3,8.7,115.3,8.7z"/>
	</g>
</g>
</svg>