<?xml version="1.0" encoding="UTF-8" standalone="no"?><!DOCTYPE svg PUBLIC "-//W3C//DTD SVG 1.1//EN" "http://www.w3.org/Graphics/SVG/1.1/DTD/svg11.dtd"><svg width="100%" height="100%" viewBox="0 0 814 779" version="1.1" xmlns="http://www.w3.org/2000/svg" xmlns:xlink="http://www.w3.org/1999/xlink" xml:space="preserve" xmlns:serif="http://www.serif.com/" style="fill-rule:evenodd;clip-rule:evenodd;stroke-linejoin:round;stroke-miterlimit:1.41421;"><path d="M506.51,778.22l-506.51,0l0,-588.25l76.53,-84.87l429.98,0l0,673.12Z" style="fill:url(#_Linear1);fill-rule:nonzero;"/><path d="M498.69,760.33l-489.74,0l0,-565.77l73.99,-81.63l415.75,0l0,647.4Z" style="fill:#fafafa;fill-rule:nonzero;"/><rect x="56.76" y="182.81" width="238.59" height="40.25" style="fill:#e0e0e0;"/><rect x="57.24" y="292.95" width="174.84" height="40.25" style="fill:#e0e0e0;"/><rect x="57.24" y="458.43" width="392.18" height="147.59" style="fill:#4b9cd3;"/><rect x="360.55" y="183.37" width="88.87" height="40.25" style="fill:#f5f5f5;"/><rect x="360.55" y="245.99" width="88.87" height="40.25" style="fill:#f5f5f5;"/><path d="M90.57,112.93l0,89.45l-81.62,0l0,-7.82l73.79,-81.63l7.83,0Z" style="fill:url(#_Linear2);fill-rule:nonzero;"/><path d="M8.75,194.56l73.99,-81.63l0,81.63l-73.99,0Z" style="fill:#eee;fill-rule:nonzero;"/><path d="M661.93,722.31l-506.51,0l0,-588.25l76.53,-84.86l429.98,0l0,673.11Z" style="fill:url(#_Linear3);fill-rule:nonzero;"/><path d="M654.11,704.42l-489.74,0l0,-565.77l73.99,-81.63l415.75,0l0,647.4Z" style="fill:#fafafa;fill-rule:nonzero;"/><rect x="212.18" y="126.91" width="238.59" height="40.25" style="fill:#e0e0e0;"/><rect x="212.66" y="237.04" width="174.84" height="40.25" style="fill:#e0e0e0;"/><rect x="212.66" y="402.53" width="392.18" height="147.59" style="fill:#4b9cd3;"/><rect x="515.97" y="127.47" width="88.87" height="40.25" style="fill:#f5f5f5;"/><rect x="515.97" y="190.08" width="88.87" height="40.25" style="fill:#f5f5f5;"/><path d="M245.99,57.02l0,89.45l-81.62,0l0,-7.82l73.79,-81.63l7.83,0Z" style="fill:url(#_Linear4);fill-rule:nonzero;"/><path d="M164.17,138.65l73.99,-81.63l0,81.63l-73.99,0Z" style="fill:#eee;fill-rule:nonzero;"/><path d="M814,673.12l-506.51,0l0,-588.25l76.52,-84.87l429.99,0l0,673.12Z" style="fill:url(#_Linear5);fill-rule:nonzero;"/><path d="M806.17,655.23l-489.74,0l0,-565.78l74,-81.62l415.74,0l0,647.4Z" style="fill:#fff;fill-rule:nonzero;"/><rect x="364.25" y="77.71" width="238.59" height="40.25" style="fill:#e0e0e0;"/><rect x="364.73" y="187.85" width="174.84" height="40.25" style="fill:#e0e0e0;"/><rect x="364.73" y="353.33" width="392.18" height="147.59" style="fill:#4b9cd3;"/><rect x="668.04" y="78.27" width="88.87" height="40.25" style="fill:#e0e0e0;"/><rect x="668.04" y="140.88" width="88.87" height="40.25" style="fill:#e0e0e0;"/><rect x="668.04" y="203.5" width="88.87" height="40.25" style="fill:#e0e0e0;"/><path d="M398.06,7.83l0,89.45l-81.63,0l0,-7.83l73.8,-81.62l7.83,0Z" style="fill:url(#_Linear6);fill-rule:nonzero;"/><path d="M316.23,89.45l74,-81.62l0,81.62l-74,0Z" style="fill:#eee;fill-rule:nonzero;"/><defs><linearGradient id="_Linear1" x1="0" y1="0" x2="1" y2="0" gradientUnits="userSpaceOnUse" gradientTransform="matrix(4.12167e-14,-673.12,673.12,4.12167e-14,253.26,778.22)"><stop offset="0" style="stop-color:#808080;stop-opacity:0.25"/><stop offset="0.01" style="stop-color:#808080;stop-opacity:0.25"/><stop offset="0.54" style="stop-color:#808080;stop-opacity:0.12"/><stop offset="1" style="stop-color:#808080;stop-opacity:0.1"/></linearGradient><linearGradient id="_Linear2" x1="0" y1="0" x2="1" y2="0" gradientUnits="userSpaceOnUse" gradientTransform="matrix(5.47723e-15,-89.45,89.45,5.47723e-15,49.76,202.38)"><stop offset="0" style="stop-color:#b3b3b3;stop-opacity:0.25"/><stop offset="0.54" style="stop-color:#b3b3b3;stop-opacity:0.1"/><stop offset="1" style="stop-color:#b3b3b3;stop-opacity:0.05"/></linearGradient><linearGradient id="_Linear3" x1="0" y1="0" x2="1" y2="0" gradientUnits="userSpaceOnUse" gradientTransform="matrix(4.12161e-14,-673.11,673.11,4.12161e-14,408.68,722.31)"><stop offset="0" style="stop-color:#808080;stop-opacity:0.25"/><stop offset="0.01" style="stop-color:#808080;stop-opacity:0.25"/><stop offset="0.54" style="stop-color:#808080;stop-opacity:0.12"/><stop offset="1" style="stop-color:#808080;stop-opacity:0.1"/></linearGradient><linearGradient id="_Linear4" x1="0" y1="0" x2="1" y2="0" gradientUnits="userSpaceOnUse" gradientTransform="matrix(5.47785e-15,-89.46,89.46,5.47785e-15,205.18,146.48)"><stop offset="0" style="stop-color:#b3b3b3;stop-opacity:0.25"/><stop offset="0.54" style="stop-color:#b3b3b3;stop-opacity:0.1"/><stop offset="1" style="stop-color:#b3b3b3;stop-opacity:0.05"/></linearGradient><linearGradient id="_Linear5" x1="0" y1="0" x2="1" y2="0" gradientUnits="userSpaceOnUse" gradientTransform="matrix(4.12167e-14,-673.12,673.12,4.12167e-14,560.74,673.12)"><stop offset="0" style="stop-color:#808080;stop-opacity:0.25"/><stop offset="0.01" style="stop-color:#808080;stop-opacity:0.25"/><stop offset="0.54" style="stop-color:#808080;stop-opacity:0.12"/><stop offset="1" style="stop-color:#808080;stop-opacity:0.1"/></linearGradient><linearGradient id="_Linear6" x1="0" y1="0" x2="1" y2="0" gradientUnits="userSpaceOnUse" gradientTransform="matrix(5.47723e-15,-89.45,89.45,5.47723e-15,357.24,97.28)"><stop offset="0" style="stop-color:#b3b3b3;stop-opacity:0.25"/><stop offset="0.54" style="stop-color:#b3b3b3;stop-opacity:0.1"/><stop offset="1" style="stop-color:#b3b3b3;stop-opacity:0.05"/></linearGradient></defs></svg>