<?xml version="1.0" encoding="UTF-8" standalone="no"?><!DOCTYPE svg PUBLIC "-//W3C//DTD SVG 1.1//EN" "http://www.w3.org/Graphics/SVG/1.1/DTD/svg11.dtd"><svg width="100%" height="100%" viewBox="0 0 159 156" version="1.1" xmlns="http://www.w3.org/2000/svg" xmlns:xlink="http://www.w3.org/1999/xlink" xml:space="preserve" xmlns:serif="http://www.serif.com/" style="fill-rule:evenodd;clip-rule:evenodd;stroke-linejoin:round;stroke-miterlimit:1.41421;"><g id="icons"><path d="M152.846,42.587c-1.433,-7.326 -8.593,-17.621 -9.11,-18.471c-11.994,-19.694 -38.271,-14.347 -62.732,-14.347c-20.591,0 -45.051,0.216 -56.172,7.77c-15.556,10.565 -15.333,25.866 -16.415,43.962c-1.232,20.605 -0.264,53.482 12.837,70.408c11.261,14.549 27.775,15.705 45.18,16.074c10.339,0.221 23.584,0.502 33.904,0.502c11.948,0 23.337,2.524 34.123,-8.419c12.498,-12.679 11.018,-24.483 13.532,-58.171c0.974,-13.053 7.361,-26.48 4.853,-39.308Z" style="fill:#4b9cd3;fill-rule:nonzero;"/><path d="M122.316,23.804c0,0 -31.795,-6.568 -42.393,-6.758c-9.773,-0.175 -36.341,-0.534 -42.093,5.301c-6.714,6.812 -2.81,43.626 -3.08,58.168c-0.257,13.866 3.971,55.465 3.971,55.465l47.782,0.831l34.33,-33.079c0,0 4.471,-11.865 4.748,-26.841c0.093,-5.006 -3.265,-53.087 -3.265,-53.087Z" style="fill:#fff;fill-rule:nonzero;"/><path d="M85.128,105.254c-5.536,6.026 1.374,31.558 1.374,31.558l29.33,-31.951c0.001,-0.001 -25.172,-5.63 -30.704,0.393Z" style="fill:#e1e1e1;fill-rule:nonzero;"/><path d="M81.507,36.14c-4.499,-4.659 -21.245,-4.924 -25.904,-0.425c-4.12,3.978 -4.403,18.784 -0.425,22.904c4.499,4.659 21.245,4.924 25.904,0.425c4.119,-3.978 4.403,-18.784 0.425,-22.904Z" style="fill:#4b9cd3;fill-rule:nonzero;"/><path d="M156.09,67.111c0.019,-2.69 -0.036,-5.381 -0.055,-8.072c-0.053,-7.804 -0.059,-15.61 -0.175,-23.414c-0.119,-8.027 -0.211,-15.59 -4.967,-22.44c-4.239,-6.105 -11.079,-10.914 -18.529,-11.937c-8.154,-1.119 -16.797,-0.21 -25.007,-0.243c-17.849,-0.073 -35.687,-0.97 -53.54,-0.58c-8.154,0.18 -16.287,0.57 -24.429,1.035c-7.123,0.407 -13.962,3.347 -19.001,8.437c-6.001,6.062 -7.138,13.256 -7.504,21.415c-0.394,8.807 -0.499,17.655 -0.444,26.471c0.083,13.468 0.53,26.935 0.822,40.4c0.192,8.869 0.121,17.737 0.095,26.607c-0.016,5.371 0.771,10.306 3.507,15.068c3.88,6.754 10.787,11.981 18.424,13.635c6.381,1.382 13.373,0.576 19.829,0.523c6.468,-0.052 12.885,0.297 19.342,0.553c8.652,0.344 17.279,-0.035 25.919,-0.485c8.917,-0.464 17.797,-0.328 26.719,-0.221c7.029,0.084 14.593,0.469 21.235,-2.228c7.385,-2.998 12.879,-9.364 15.204,-16.942c2.375,-7.739 1.586,-16.688 1.811,-24.7c0.399,-14.287 0.64,-28.588 0.744,-42.882Zm-5.385,26.712c-0.181,8.164 -0.544,16.319 -0.942,24.474c-0.366,7.491 -0.307,15.077 -5.13,21.291c-4.148,5.345 -10.324,7.702 -16.938,7.833c-17.134,0.34 -34.275,0.117 -51.407,0.555c-14.851,0.379 -29.922,0.819 -44.743,-0.051c-11.607,-0.681 -21.24,-10.178 -22.325,-21.792c-1.53,-16.376 -1.429,-32.853 -1.511,-49.287c-0.044,-8.878 0.224,-17.657 0.674,-26.53c0.382,-7.533 0.282,-15.105 0.457,-22.647c0.154,-6.655 2.838,-12.472 8.214,-16.557c5.637,-4.284 12.019,-4.725 18.77,-5.336c8.798,-0.796 17.591,-1.204 26.415,-0.602c17.292,1.18 34.761,0.857 52.089,0.909c7.704,0.023 16.828,-1.115 23.777,2.828c6.181,3.508 11.266,10.151 11.735,17.401c0.876,13.546 0.405,27.237 0.461,40.808c0.008,2.041 -0.047,4.082 -0.055,6.122c-0.032,6.857 0.61,13.747 0.459,20.581Z" style="fill:#151515;fill-rule:nonzero;"/><path d="M119.304,21.316c-4.096,0.146 -8.205,0.245 -12.304,0.18c-4.734,-0.075 -9.494,0.017 -14.197,-0.576c-5.276,-0.666 -10.456,-1.03 -15.767,-0.792c-7.222,0.324 -14.251,0.999 -21.496,0.634c-3.193,-0.161 -6.386,-0.329 -9.579,-0.501c-1.647,-0.089 -3.294,-0.178 -4.941,-0.267c-3.507,-0.19 -2.72,5.198 -2.827,7.379c-0.299,6.108 0.189,12.167 0.113,18.271c-0.072,5.76 -0.396,11.517 -0.677,17.269c-0.327,6.705 -0.953,13.568 -0.344,20.264c0.629,6.926 -0.048,13.53 -0.554,20.426c-0.604,8.236 -0.4,16.549 -0.22,24.8c0.053,2.43 -0.297,5.408 0.293,7.752c0.11,3.001 8.966,1.544 11.113,1.523c7.038,-0.07 14.1,0.061 21.135,0.294c5.477,0.181 10.954,0.35 16.423,0.701c2.921,0.188 4.961,-2.803 6.969,-4.654c1.382,-1.273 2.764,-2.547 4.146,-3.82c3.956,-3.645 7.843,-7.366 11.765,-11.048c3.201,-3.005 6.403,-6.01 9.604,-9.015c1.473,-1.383 4.919,-3.536 5.492,-5.658c0.565,-2.093 -0.024,-4.753 -0.038,-6.957c-0.014,-2.207 -0.029,-4.414 -0.043,-6.622c-0.024,-3.76 0.039,-7.517 0.103,-11.276c0.118,-6.852 0.148,-13.688 0.071,-20.54c-0.133,-11.758 1.43,-23.449 1.408,-35.231c0.212,-3.284 -3.573,-2.61 -5.648,-2.536Zm-8.748,88.927c-7.315,7.428 -14.481,15.065 -22.114,22.168c0.471,-8.56 1.234,-17.193 1.179,-25.762c-0.005,-0.778 -0.267,-1.09 0.514,-1.096c0.943,-0.007 1.887,-0.014 2.83,-0.021c1.54,-0.011 3.081,-0.023 4.621,-0.035c1.908,-0.015 3.798,0.066 5.701,0.195c3.996,0.271 7.98,-0.559 11.982,-0.22c-1.576,1.586 -3.145,3.178 -4.713,4.771Zm9.015,-76.219c-0.207,5.906 -1.071,11.793 -1.143,17.692c-0.065,5.355 0.728,10.66 0.839,16.007c0.112,5.349 -0.453,10.642 -0.621,15.98c-0.219,5.897 -0.356,11.831 -0.265,17.734c-2.216,-0.333 -4.456,0.011 -6.686,-0.012c-2.726,-0.022 -5.451,-0.101 -8.176,-0.168c-2.73,-0.083 -5.45,-0.035 -8.179,0.015c-2.075,0.038 -7.719,-0.027 -8.321,0.149c-2.189,0.642 -1.56,2.826 -1.577,4.722c-0.045,5.204 -0.75,10.33 -0.724,15.546c0.021,4.304 0.043,8.608 0.064,12.912c-1.399,-0.188 -2.806,-0.321 -4.209,-0.473c-6.937,-0.752 -13.916,-1.212 -20.884,-1.549c-3.562,-0.172 -7.132,-0.305 -10.697,-0.357c-1.25,-0.018 -6.939,0.36 -6.972,-0.255c-0.073,-1.381 -0.152,-2.76 -0.195,-4.143c-0.294,-9.435 -0.226,-18.891 0.355,-28.316c0.528,-8.568 -0.931,-16.848 -0.845,-25.389c0.088,-8.799 0.532,-17.582 0.941,-26.371c0.354,-7.611 1.063,-15.135 1.133,-22.756c8.225,0.234 16.651,1.893 24.864,1.089c7.933,-0.777 15.756,-1.502 23.736,-1.037c7.846,0.457 15.699,0.766 23.551,1.106c1.308,0.057 2.616,0.113 3.923,0.17c0.507,0.021 0.118,6.865 0.088,7.704Z" style="fill:#151515;fill-rule:nonzero;"/><path d="M103.054,67.255c-2.207,-0.077 -4.421,-0.058 -6.629,-0.078c-5.227,-0.048 -10.453,0.502 -15.678,0.287c-8.053,-0.198 -16.128,-0.972 -24.18,-0.994c-1.155,-0.02 -2.299,0.23 -2.709,1.486c-0.464,1.424 0.648,2.844 2.113,2.844c3.322,0 6.657,0.243 9.976,0.368c8.657,0.326 17.289,0.61 25.953,0.463c3.853,-0.065 7.707,-0.012 11.56,0.005c0.647,0.003 1.321,0.061 1.967,0.009c1.751,0.005 2.781,-2.075 1.704,-3.461c-0.89,-1.148 -2.805,-0.884 -4.077,-0.929Z" style="fill:#151515;fill-rule:nonzero;"/><path d="M105.298,78.352c-6.801,0.098 -13.605,0.047 -20.406,0.051c-8.515,0.004 -17.03,-0.778 -25.549,-0.929c-1.793,-0.032 -6.8,-0.598 -5.667,2.836c0.709,2.148 4.162,1.504 5.86,1.531c4.114,0.065 8.227,0.165 12.339,0.278c4.076,0.112 8.124,0.796 12.189,0.781c5.602,-0.021 11.204,0.054 16.804,-0.123c1.58,-0.05 3.356,0.144 4.909,-0.184c2.461,-0.522 2.038,-4.279 -0.479,-4.241Z" style="fill:#151515;fill-rule:nonzero;"/><path d="M105.345,89.375c-3.278,-0.326 -6.502,-0.355 -9.792,-0.233c-4.209,0.156 -8.419,-0.12 -12.635,0.071c-8.202,0.371 -16.278,-0.51 -24.464,-0.732c-1.114,-0.03 -2.554,-0.279 -3.64,0.093c-1.494,0.512 -1.945,2.48 -0.824,3.593c0.982,0.974 2.763,0.619 4.014,0.65c1.9,0.047 3.795,0.116 5.694,0.218c8.395,0.452 16.77,0.811 25.176,0.387c2.361,-0.119 4.706,-0.414 7.075,-0.321c2.094,0.083 4.187,0.282 6.281,0.39c1.202,0.062 3.084,0.516 4.153,-0.256c1.562,-1.125 0.88,-3.668 -1.038,-3.86Z" style="fill:#151515;fill-rule:nonzero;"/><path d="M53.489,57.588c-0.053,1.652 1.525,1.715 2.741,1.711c2.339,-0.007 4.678,0.035 7.017,0.047c2.353,0.012 4.671,0.251 7.009,0.49c2.335,0.238 4.666,0.298 7.013,0.296c1.51,-0.001 4.323,0.567 5.417,-0.724c0.685,-0.807 0.49,-2.114 0.493,-3.101c0.005,-1.814 0.01,-3.627 0.015,-5.441c0.012,-4.289 0.024,-8.578 0.036,-12.867c0.003,-0.929 0.005,-1.858 0.008,-2.787c0.003,-1.076 -0.719,-1.755 -1.7,-2.011c-2.332,-0.361 -4.646,-0.592 -7.009,-0.506c-1.876,0.068 -3.751,0.091 -5.627,0.087c-2.622,-0.004 -5.244,-0.06 -7.868,-0.112c-1.079,-0.021 -2.159,-0.044 -3.238,-0.066c-0.908,-0.019 -2.033,-0.23 -2.906,0.074c-1.881,0.654 -1.472,3.049 -1.496,4.599c-0.106,6.767 0.044,13.544 0.095,20.311Zm4.204,-19.015c0.015,-0.416 0.043,-0.831 0.065,-1.247c0.028,-0.543 0.604,-0.288 1.046,-0.301c1.08,-0.02 2.161,-0.02 3.24,-0.069c3.961,-0.117 7.917,-0.346 11.878,-0.11c1.924,0.115 3.843,0.181 5.77,0.208c-0.246,5.731 -0.492,11.462 -0.739,17.193c-0.017,0.39 -0.034,0.781 -0.05,1.171c-0.027,0.636 -1.142,0.217 -1.604,0.2c-3.178,-0.12 -6.357,-0.26 -9.536,-0.359c-3.373,-0.105 -6.742,-0.111 -10.116,-0.11l0.001,-8.928c0,-1.597 -0.001,-3.195 -0.002,-4.792c0,-0.953 0.013,-1.904 0.047,-2.856Z" style="fill:#151515;fill-rule:nonzero;"/></g></svg>