<?xml version="1.0" encoding="UTF-8" standalone="no"?><!DOCTYPE svg PUBLIC "-//W3C//DTD SVG 1.1//EN" "http://www.w3.org/Graphics/SVG/1.1/DTD/svg11.dtd"><svg width="100%" height="100%" viewBox="0 0 99 23" version="1.1" xmlns="http://www.w3.org/2000/svg" xmlns:xlink="http://www.w3.org/1999/xlink" xml:space="preserve" xmlns:serif="http://www.serif.com/" style="fill-rule:evenodd;clip-rule:evenodd;stroke-linejoin:round;stroke-miterlimit:1.41421;"><path d="M12.75,6.488l0,0.188l0,-0.188Z" style="fill:#fff;"/><path d="M12.75,6.676Z" style="fill:#fff;"/><path d="M9.038,0c-3.113,0 -4.988,1.013 -6.225,2.176l-0.038,0.037c-0.037,0.075 -0.038,0.15 0.112,0.113c2.663,-1.126 5.551,-0.413 6.488,0.637c0.038,0.037 0,0.075 -0.037,0.075c-0.938,0 -1.726,-0.037 -3.451,0.188c-0.937,0.15 -1.762,0.262 -2.475,0.449c-1.162,0.3 -1.987,0.675 -2.437,0.975c-0.15,0.075 -0.187,0.15 -0.225,0.225c-0.037,0.15 -0.037,0.151 -0.075,0.263c-0.075,0.188 -0.075,0.3 -0.112,0.375c-0.038,0.113 0.112,0.075 0.187,0c0.15,-0.15 0.525,-0.487 1.088,-0.75c0.562,-0.262 1.499,-0.562 2.549,-0.75c1.35,-0.262 3.038,-0.412 4.539,-0.412c1.762,0 3.336,0.187 4.649,0.449c1.35,0.263 2.4,0.638 3.075,0.975c0.338,0.15 0.488,0.301 0.713,0.488c0.187,0.188 0.187,0.038 0.187,-0.037c0,0 -0.037,-0.225 -0.3,-0.75c-0.9,-1.613 -3.225,-4.726 -8.212,-4.726l0,0Zm24.562,2.513l-0.075,0.975l0.225,0c0.075,-0.525 0.225,-0.6 0.45,-0.6l0.562,0l0,2.026c0,0.412 -0.037,0.487 -0.524,0.487l0,0.224l1.912,0l0,-0.224c-0.45,0 -0.525,-0.075 -0.525,-0.487l0,-2.025l0.562,0c0.338,0 0.413,0.112 0.488,0.6l0.225,0l-0.113,-0.975l-0.225,0c-0.037,0.075 -0.075,0.074 -0.3,0.074l-2.212,0l-0.15,0l-0.075,-0.074l-0.225,0l0,-0.001Zm4.425,0l0,0.225c0.3,0 0.413,0.113 0.413,0.488l0,1.649c0,0.413 -0.075,0.488 -0.413,0.488l0,0.225l1.688,0l0,-0.225c-0.375,0 -0.412,-0.15 -0.412,-0.45l0,-0.712l1.461,0l0,0.712c0,0.413 -0.112,0.487 -0.412,0.487l0,0.225l1.65,0l0,-0.225c-0.375,0 -0.412,-0.149 -0.412,-0.487l0,-1.687c0,-0.3 0.037,-0.413 0.412,-0.413l0,-0.225l-1.65,0l0,0.225c0.338,0 0.412,0.113 0.412,0.488l0,0.525l-1.461,0l0,-0.638c0,-0.375 0.074,-0.412 0.412,-0.45l0,-0.225l-1.688,0Zm34.05,0c-0.187,0 -0.487,0.038 -0.787,0.038c-0.413,0 -0.6,-0.001 -0.9,0.037l0,0.225c0.45,0 0.525,0.075 0.525,0.45l0,1.688c0,0.337 -0.113,0.412 -0.525,0.412l0,0.225l1.837,0l0,-0.225c-0.375,0 -0.525,-0.037 -0.525,-0.412l0,-0.638l0.263,0c0.225,0.225 0.525,0.75 0.825,1.05c0.225,0.225 0.487,0.3 0.937,0.3l0.6,0l0,-0.225c-0.263,0 -0.45,-0.037 -0.675,-0.262c-0.3,-0.3 -0.487,-0.713 -0.787,-0.975c0.488,-0.15 0.712,-0.413 0.712,-0.788c0,-0.75 -0.713,-0.9 -1.5,-0.9l0,0Zm3.976,0c-0.825,0 -1.051,0.525 -1.051,0.862c0,0.938 1.538,1.013 1.538,1.65c0,0.263 -0.187,0.451 -0.487,0.451c-0.413,0 -0.713,-0.3 -0.863,-0.75l0,-0.038l-0.225,0l0.15,0.975l0.15,0c0,-0.037 0.037,-0.075 0.112,-0.075c0.075,0 0.45,0.113 0.788,0.113c0.675,0 1.125,-0.375 1.125,-0.938c0,-1.05 -1.612,-1.162 -1.612,-1.687c0,-0.188 0.15,-0.301 0.412,-0.301c0.338,0 0.675,0.226 0.825,0.638l0.225,0l-0.075,-0.862l-0.15,0c-0.038,0.075 -0.075,0.075 -0.113,0.075c-0.15,0 -0.375,-0.112 -0.75,-0.112l0.001,-0.001Zm5.25,0l-0.075,0.975l0.225,0c0.075,-0.525 0.225,-0.6 0.45,-0.6l0.563,0l0,2.026c0,0.412 -0.038,0.487 -0.526,0.487l0,0.224l1.875,0l0,-0.224c-0.45,0 -0.525,-0.075 -0.525,-0.487l0,-2.026l0.563,0c0.337,0 0.413,0.113 0.488,0.6l0.224,0l-0.074,-0.975l-0.226,0c-0.037,0.075 -0.074,0.075 -0.299,0.075l-2.213,0l-0.15,0l-0.075,-0.075l-0.225,0l0,0Zm-38.063,0.038l0,0.224c0.338,0 0.487,0.038 0.487,0.451l0,1.687c0,0.338 -0.075,0.45 -0.525,0.45l0,0.225l2.963,0l0.075,-0.825l-0.225,0c-0.075,0.338 -0.188,0.525 -0.6,0.525l-0.563,0c-0.262,0 -0.299,0 -0.299,-0.263l0,-0.787l0.637,0c0.375,0 0.45,0.075 0.45,0.338l0.225,0l0,-1.013l-0.225,0c0,0.3 -0.113,0.375 -0.45,0.375l-0.637,0l0,-1.05l0.975,0c0.262,0 0.337,0.075 0.375,0.413l0.224,0l-0.037,-0.713l0,-0.037l-2.85,0l0,0Zm15.938,0l0,0.224c0.337,0 0.412,0.151 0.412,0.488l0,1.688c0,0.337 -0.075,0.449 -0.412,0.449l0,0.188l1.687,0l0,-0.225c-0.412,0 -0.45,-0.15 -0.45,-0.45l0,-1.65c0,-0.375 0.075,-0.488 0.45,-0.488l0,-0.224l-1.687,0l0,0Zm6.862,0l0,0.224c0.337,0 0.488,0.038 0.488,0.451l0,1.687c0,0.338 -0.075,0.45 -0.525,0.45l0,0.225l2.962,0l0.075,-0.825l-0.225,0c-0.075,0.338 -0.187,0.525 -0.6,0.525l-0.562,0c-0.263,0 -0.3,0 -0.3,-0.263l0,-0.787l0.637,0c0.375,0 0.45,0.075 0.45,0.338l0.225,0l0,-1.013l-0.225,0c0,0.3 -0.112,0.375 -0.45,0.375l-0.637,0l0,-1.05l0.974,0c0.263,0 0.338,0.075 0.375,0.412l0.226,0l-0.038,-0.712l0,-0.038l-2.85,0l0,0.001Zm12.488,0l0,0.224c0.337,0 0.412,0.151 0.412,0.488l0,1.688c0,0.337 -0.075,0.449 -0.412,0.449l0,0.188l1.687,0l0,-0.225c-0.412,0 -0.45,-0.15 -0.45,-0.45l0,-1.65c0,-0.375 0.075,-0.488 0.45,-0.488l0,-0.224l-1.687,0l0,0Zm-29.213,0.037l0,0.225c0.338,0 0.413,0.15 0.413,0.488l0,1.275c0,0.712 0.562,1.125 1.462,1.125c0.825,0 1.426,-0.375 1.426,-1.35l0,-1.088c0,-0.375 0.074,-0.45 0.487,-0.45l0,-0.225l-1.313,0l0,0.225c0.413,0 0.488,0.113 0.488,0.488l0,1.012c0,0.637 -0.263,0.975 -0.9,0.975c-0.6,0 -0.863,-0.3 -0.863,-0.75l0,-1.312c0,-0.3 0.113,-0.413 0.45,-0.413l0,-0.225l-1.65,0Zm12.375,0l0,0.225c0.338,0 0.375,0.038 0.637,0.6l1.013,2.288l0.375,0l1.05,-2.326c0.225,-0.487 0.338,-0.562 0.675,-0.562l0,-0.225l-1.35,0l0,0.225c0.3,0 0.413,0.075 0.413,0.187c0,0.075 -0.038,0.188 -0.188,0.488l-0.562,1.238l-0.638,-1.426c-0.037,-0.15 -0.075,-0.225 -0.075,-0.3c0,-0.113 0.113,-0.188 0.488,-0.188l0,-0.224l-1.838,0l0,0Zm26.025,0l0,0.225c0.263,0 0.338,0.037 0.338,0.15c0,0.075 -0.038,0.15 -0.113,0.3l-0.487,0.787l-0.675,-0.937c-0.038,-0.038 -0.076,-0.113 -0.076,-0.15c0,-0.075 0.113,-0.112 0.338,-0.112l0,-0.226l-1.762,0l0,0.226c0.262,0 0.374,0.075 0.599,0.375l0.901,1.199l0,0.488c0,0.338 -0.076,0.45 -0.488,0.45l0,0.225l1.8,0l0,-0.225c-0.45,0 -0.488,-0.112 -0.488,-0.45l0,-0.525l0.713,-1.088c0.262,-0.412 0.338,-0.488 0.675,-0.488l-0.038,0l0,-0.225l-1.237,0l0,0.001Zm-33.488,0.037l0,0.226c0.225,0 0.338,0.037 0.413,0.112l0,1.95c0,0.413 -0.112,0.487 -0.45,0.487l0,0.225l1.238,0l0,-0.225c-0.413,0 -0.451,-0.112 -0.451,-0.449l0,-1.613l2.213,2.325l0.375,0l0,-2.4c0,-0.337 0.112,-0.45 0.45,-0.45l0,-0.188l-1.237,0l0,0.226c0.412,0 0.449,0.15 0.449,0.45l0,1.312l-1.837,-1.988l-1.163,0l0,0Zm17.513,0.113l0.225,0c0.45,0 0.712,0.262 0.712,0.637c0,0.478 -0.255,0.703 -0.937,0.711l0,-1.348l0,0Zm-62.7,1.574c-4.125,0 -6.713,0.826 -7.275,1.201c0,0 -0.15,0.075 -0.15,0.187c0,0.038 0.075,0.225 0.075,0.225l0.113,0.225c0.037,0.075 0.074,0.075 0.149,0c0,0 0.075,-0.037 0.075,-0.075c0,-0.037 -0.037,-0.15 -0.037,-0.15c-0.075,-0.15 0.037,-0.187 0.037,-0.187l0.225,-0.113c0.113,-0.038 0.113,0.038 0.15,0.113c0,0 0.038,0.112 0.075,0.15c0.075,0.037 0.262,-0.075 0.787,-0.225c0.038,0 0.076,0 0.151,-0.038c0.037,-0.037 0,-0.225 0,-0.225c-0.038,-0.075 -0.075,-0.187 0.15,-0.225l0.337,-0.075c0.15,-0.037 0.188,0.037 0.188,0.15c0,0 0,0.15 0.037,0.187c0.038,0.075 0.112,-0.037 1.2,-0.149c0,0 0.15,0 0.187,-0.075c0.038,-0.075 0,-0.188 0,-0.188c0,-0.112 -0.075,-0.225 0.188,-0.225l0.45,-0.037c0.338,-0.075 0.3,0.075 0.3,0.187c0,0 0.001,0.15 0.038,0.15c0.038,0.038 0.149,0.038 0.149,0.038c0.6,-0.075 0.938,-0.076 1.576,-0.076c0,0 0.074,0.001 0.112,-0.037c0.037,-0.037 0.038,-0.075 0.038,-0.075c0,-0.075 0,-0.187 0.037,-0.225c0.038,-0.037 0.15,-0.038 0.225,-0.038l0.525,0c0.075,0 0.262,-0.037 0.3,0.038c0.037,0.038 0.038,0.263 0.038,0.263c0,0 0.075,0.112 0.075,0.15c0.037,0.037 0.074,0.037 0.074,0.037c3.037,-0.107 4.812,0.976 5.102,1.5l-0.264,0c-0.075,0 -0.112,0.038 -0.112,0.113l0,0.187c0,0.075 0.037,0.113 0.112,0.113l0.525,0c0.038,0 0.075,0.037 0.075,0.037c0.037,0.037 -0.075,0.113 -0.112,0.113l-0.263,0.15c-0.038,0.037 -0.075,0.075 -0.075,0.15l0,10.95c0.038,0.225 0.375,0.225 0.75,0.225c0.3,0 0.676,0 0.713,-0.225l0,-11.363c0,-0.037 0.038,-0.075 0.038,-0.075l0.074,0c0.075,0 0.113,-0.037 0.113,-0.112l0,-0.188c-0.037,-0.037 -0.075,-0.074 -0.15,-0.074l-0.094,0l0.394,-0.825c0.038,-0.075 0,-0.188 0,-0.188c-0.375,-0.412 -3.562,-1.35 -7.425,-1.35l0,-0.001Zm-3.825,1.688c-0.075,0 -0.113,0.038 -0.113,0.113l0,0.187c0,0.075 0.038,0.113 0.113,0.113l0.525,0c0.038,0 0.075,0.037 0.075,0.037c0.038,0.038 -0.075,0.112 -0.113,0.112l-0.262,0.151c-0.037,0.037 -0.074,0.075 -0.074,0.15l0,12.113c0.037,0.225 0.375,0.224 0.75,0.224c0.3,0 0.674,0.001 0.711,-0.224l0,-12.525c0,-0.038 0.039,-0.076 0.039,-0.076l0.074,0c0.075,0 0.113,-0.037 0.113,-0.112l0,-0.187c-0.037,-0.038 -0.075,-0.076 -0.15,-0.076l-1.688,0l0,0Zm5.963,0c-0.075,0 -0.113,0.038 -0.113,0.113l0,0.187c0,0.075 0.038,0.113 0.113,0.113l0.524,0c0.038,0 0.076,0.037 0.076,0.037c0.037,0.038 -0.076,0.112 -0.113,0.112l-0.262,0.151c-0.038,0.037 -0.076,0.075 -0.076,0.15l0,12.113c0.038,0.225 0.375,0.224 0.75,0.224c0.3,0 0.675,0.001 0.713,-0.224l0,-12.525c0,-0.038 0.037,-0.076 0.037,-0.076l0.076,0c0.075,0 0.112,-0.037 0.112,-0.112l0,-0.187c-0.038,-0.038 -0.075,-0.076 -0.15,-0.076l-1.687,0l0,0Zm1.649,0.45l0.038,0l-0.038,0Zm-10.912,0.263c-0.075,0 -0.112,0.038 -0.112,0.113l0,0.187c0,0.075 0.037,0.112 0.112,0.112l0.525,0c0.038,0 0.075,0.038 0.075,0.038c0.037,0.038 -0.075,0.112 -0.112,0.112l-0.263,0.15c-0.038,0.038 -0.075,0.075 -0.075,0.15l0,10.95c0.038,0.225 0.375,0.225 0.75,0.225c0.3,0 0.675,-0.038 0.713,-0.225l0,-11.362c0,-0.038 0.037,-0.076 0.037,-0.076l0.075,0c0.075,0.001 0.113,-0.036 0.113,-0.111l0,-0.188c-0.038,-0.037 -0.075,-0.075 -0.15,-0.075l-1.688,0l0,0Zm36.3,2.4c-0.787,0 -1.237,0.675 -1.35,1.462c-0.112,0.075 -0.3,0.113 -0.45,0.113l-0.037,0.15l0.412,0l-0.413,2.513c-0.037,0.375 -0.187,0.6 -0.375,0.6c-0.262,0 -0.262,-0.413 -0.599,-0.413c-0.15,0 -0.301,0.113 -0.301,0.263c0,0.187 0.225,0.337 0.563,0.337c0.375,0 0.638,-0.15 0.863,-0.375c0.375,-0.337 0.487,-0.712 0.562,-1.125l0.375,-1.8l0.412,0l0.038,-0.262l-0.413,0l0.075,-0.563c0.075,-0.487 0.113,-0.675 0.263,-0.675c0.188,0 0.3,0.375 0.6,0.375c0.15,0 0.3,-0.15 0.3,-0.3c0,-0.187 -0.187,-0.3 -0.525,-0.3l0,0Zm9.188,0.6c-1.313,0 -1.913,0.787 -1.913,1.612c0,0.675 0.412,1.575 1.8,1.575c1.462,0 1.875,-0.974 1.875,-1.612c0,-0.675 -0.412,-1.575 -1.762,-1.575Zm7.199,0l-0.075,0.975l0.225,0c0.075,-0.525 0.225,-0.6 0.45,-0.6l0.563,0l0,2.025c0,0.412 -0.037,0.488 -0.525,0.488l0,0.224l1.875,0l0,-0.224c-0.45,0 -0.525,-0.076 -0.525,-0.488l0,-2.025l0.562,0c0.338,0 0.413,0.112 0.488,0.6l0.225,0l-0.075,-0.975l-0.225,0c-0.038,0.075 -0.075,0.075 -0.3,0.075l-2.212,0l-0.151,0l-0.075,-0.075l-0.225,0l0,0Zm16.725,0l0.038,0.112l-0.75,2.175c-0.15,0.525 -0.187,0.601 -0.562,0.601l0,0.224l1.237,0l0,-0.224c-0.263,0 -0.413,-0.038 -0.413,-0.188c0,-0.037 0.038,-0.187 0.113,-0.375l0.075,-0.263l1.088,0l0.112,0.3c0.075,0.188 0.112,0.3 0.112,0.375c0,0.113 -0.112,0.151 -0.449,0.151l0,0.224l1.725,0l0,-0.224c-0.263,0 -0.375,-0.113 -0.563,-0.563l-0.9,-2.326l-0.863,0l0,0.001Zm9.638,0c-1.312,0 -1.912,0.787 -1.912,1.612c0,0.675 0.412,1.575 1.799,1.575c1.463,0 1.875,-0.974 1.875,-1.612c0,-0.675 -0.412,-1.575 -1.762,-1.575Zm15.3,0l0.038,0.112l-0.75,2.175c-0.15,0.525 -0.188,0.601 -0.563,0.601l0,0.224l1.237,0l0,-0.224c-0.262,0 -0.412,-0.038 -0.412,-0.188c0,-0.037 0.038,-0.187 0.113,-0.375l0.075,-0.263l1.087,0l0.112,0.3c0.075,0.188 0.113,0.3 0.113,0.375c0,0.113 -0.112,0.15 -0.449,0.15l0,0.225l1.724,0l0,-0.225c-0.262,0 -0.375,-0.112 -0.562,-0.562l-0.9,-2.326l-0.863,0l0,0.001Zm-44.513,0.037c-0.187,0 -0.487,0.038 -0.787,0.038c-0.413,0 -0.6,0.037 -0.9,0.037l0,0.225c0.45,0 0.525,0.075 0.525,0.45l0,1.687c0,0.338 -0.113,0.413 -0.525,0.413l0,0.225l1.837,0l0,-0.225c-0.375,0 -0.525,-0.038 -0.525,-0.413l0,-0.637l0.262,0c0.225,0.225 0.526,0.75 0.826,1.05c0.225,0.225 0.487,0.3 0.937,0.3l0.6,0l0,-0.225c-0.262,0 -0.45,-0.037 -0.675,-0.262c-0.3,-0.3 -0.487,-0.713 -0.787,-0.976c0.487,-0.15 0.712,-0.412 0.712,-0.787c0,-0.75 -0.712,-0.9 -1.5,-0.9l0,0Zm16.238,0c-0.562,0 -1.05,0.15 -1.388,0.45c-0.337,0.3 -0.525,0.712 -0.525,1.2c0,0.337 0.151,0.713 0.413,1.013c0.3,0.3 0.75,0.524 1.387,0.524c0.188,0 0.338,-0.037 0.488,-0.037c0.15,-0.038 0.262,-0.037 0.412,-0.037l0.151,0c0.075,0 0.111,0.037 0.149,0.037l0,-0.037c0.15,-0.338 0.263,-0.713 0.3,-0.975l-0.225,0c-0.225,0.487 -0.6,0.75 -1.05,0.75c-0.712,0 -1.162,-0.563 -1.162,-1.35c0,-0.75 0.45,-1.275 1.087,-1.275c0.263,0 0.488,0.075 0.638,0.225c0.15,0.15 0.3,0.337 0.337,0.599l0.225,0l-0.037,-1.012l-0.188,0c0,0.038 -0.037,0.075 -0.074,0.075c-0.113,0 -0.413,-0.15 -0.938,-0.15l0,0Zm8.325,0c-0.188,0 -0.488,0.038 -0.788,0.038c-0.412,0 -0.6,0.037 -0.9,0.037l0,0.225c0.45,0 0.525,0.075 0.525,0.45l0,1.687c0,0.338 -0.112,0.414 -0.525,0.414l0,0.224l1.838,0l0,-0.224c-0.375,0 -0.525,-0.039 -0.525,-0.414l0,-0.637l0.225,0c0.225,0.225 0.525,0.751 0.825,1.051c0.225,0.225 0.487,0.299 0.937,0.299l0.638,0l0,-0.225c-0.263,0 -0.451,-0.037 -0.676,-0.262c-0.3,-0.3 -0.487,-0.713 -0.787,-0.976c0.488,-0.15 0.713,-0.412 0.713,-0.787c0,-0.75 -0.713,-0.9 -1.5,-0.9l0,0Zm-17.4,0.038l0,0.225c0.3,0 0.412,0.074 0.412,0.449l0,1.651c0,0.412 -0.075,0.487 -0.412,0.487l0,0.225l1.687,0l0,-0.225c-0.375,0 -0.412,-0.15 -0.412,-0.45l0,-0.713l1.462,0l0,0.713c0,0.412 -0.112,0.488 -0.412,0.488l0,0.225l1.65,0l0,-0.225c-0.375,0 -0.413,-0.151 -0.413,-0.488l0,-1.688c0,-0.3 0.075,-0.412 0.413,-0.412l0,-0.225l-1.65,0l0,0.225c0.338,0 0.412,0.113 0.412,0.488l0,0.562l-1.462,0l0,-0.638c0,-0.375 0.075,-0.412 0.412,-0.449l0,-0.225l-1.687,0Zm24.825,0l0,0.225c0.45,0 0.487,0.112 0.487,0.449l0,1.651c0,0.375 -0.074,0.487 -0.487,0.487l0,0.225l2.7,0l0.375,-0.9l-0.225,0c-0.413,0.563 -0.526,0.563 -0.826,0.563l-0.375,0c-0.337,0 -0.375,-0.038 -0.375,-0.338l0,-1.688c0,-0.375 0.076,-0.449 0.488,-0.449l0,-0.225l-1.762,0l0,0Zm4.012,0l0,0.225c0.338,0 0.413,0.112 0.413,0.449l0,1.688c0,0.337 -0.075,0.45 -0.413,0.45l0,0.188l1.688,0l0,-0.226c-0.413,0 -0.45,-0.149 -0.45,-0.449l0,-1.65c0,-0.338 0.074,-0.45 0.449,-0.45l0,-0.225l-1.687,0l0,0Zm-46.912,0.037l0,0.225c0.225,0 0.337,0.038 0.412,0.113l0,1.949c0,0.413 -0.112,0.488 -0.45,0.488l0,0.225l1.237,0l0,-0.225c-0.412,0 -0.449,-0.113 -0.449,-0.451l0,-1.612l2.212,2.325l0.375,0l0,-2.4c0,-0.338 0.113,-0.45 0.45,-0.45l0,-0.187l-1.238,0l0,0.225c0.413,0 0.451,0.149 0.451,0.449l0,1.313l-1.838,-1.988l-1.162,0l0,0.001Zm49.875,0l0,0.225c0.225,0 0.337,0.038 0.412,0.113l0,1.949c0,0.413 -0.112,0.488 -0.45,0.488l0,0.225l1.237,0l0,-0.225c-0.412,0 -0.449,-0.113 -0.449,-0.451l0,-1.612l2.212,2.325l0.375,0l0,-2.4c0,-0.338 0.113,-0.45 0.45,-0.45l0,-0.187l-1.238,0l0,0.225c0.413,0 0.451,0.149 0.451,0.449l0,1.313l-1.838,-1.988l-1.162,0l0,0.001Zm-43.463,0.15c0.638,0 1.05,0.637 1.05,1.575c0,0.787 -0.375,1.162 -0.862,1.162c-0.638,0 -1.088,-0.637 -1.088,-1.574c0,-0.863 0.45,-1.163 0.9,-1.163Zm4.163,0l0.225,0c0.45,0 0.712,0.262 0.712,0.637c0,0.479 -0.255,0.703 -0.937,0.712l0,-1.349l0,0Zm24.525,0l0.262,0c0.45,0 0.713,0.262 0.713,0.637c0,0.488 -0.263,0.713 -0.975,0.713l0,-1.35l0,0Zm4.875,0c0.6,0 1.05,0.637 1.05,1.575c0,0.787 -0.375,1.162 -0.863,1.162c-0.637,0 -1.087,-0.637 -1.087,-1.574c0,-0.863 0.45,-1.163 0.9,-1.163Zm-9.225,0.375l0.449,1.163l-0.862,0l0.413,-1.163Zm24.937,0l0.45,1.163l-0.862,0l0.412,-1.163Zm-61.387,0.15c-0.75,0 -1.5,0.787 -1.5,1.612c0,0.45 0.225,0.788 0.6,0.788c0.6,0 1.5,-0.6 1.5,-1.575c0,-0.488 -0.225,-0.825 -0.6,-0.825Zm-0.337,0.262c0.15,0 0.299,0.3 0.299,0.675c0,0.675 -0.3,1.238 -0.525,1.238c-0.15,0 -0.299,-0.301 -0.299,-0.676c0,-0.675 0.3,-1.237 0.525,-1.237Zm-26.926,3.488c0,0 -0.037,0 -0.037,0.038l0,0.112l0.15,0l0.15,0.337c0,0 0.038,0.038 0.075,0.038c0.075,0.037 0.15,0.037 0.15,0.037l0.563,0c0.037,0 0.112,0.001 0.112,0.038l0,0.037c0,0 0,0.038 -0.037,0.038c-0.188,0.112 -0.526,0.337 -0.676,0.449c-0.037,0 -0.074,0.038 -0.112,0.113l0,2.363l-0.187,0.075c-0.038,0 -0.038,0.037 -0.038,0.037c-0.037,0.225 -0.037,0.525 0.038,0.563c0.037,0.037 0.562,0.037 1.087,0.037c0.488,0 0.975,-0.037 1.013,-0.037c0.075,-0.038 0.074,-0.225 0.037,-0.563l-0.038,-0.038l-0.187,-0.075l0,-3l0.225,-0.45l0.113,0l0,-0.037l0,-0.075c0,0 0,-0.038 -0.038,-0.038l-2.363,0l0,0.001Zm34.875,2.7c-0.562,0 -1.049,0.15 -1.387,0.45c-0.337,0.3 -0.525,0.713 -0.525,1.2c0,0.338 0.15,0.712 0.412,1.012c0.3,0.3 0.75,0.526 1.388,0.526c0.187,0 0.337,-0.038 0.487,-0.038c0.15,-0.037 0.263,-0.038 0.413,-0.038l0.15,0c0.075,0 0.113,0.038 0.15,0.038l0,-0.038c0.15,-0.337 0.262,-0.712 0.3,-0.975l-0.225,0c-0.225,0.488 -0.6,0.75 -1.05,0.75c-0.712,0 -1.163,-0.562 -1.163,-1.35c0,-0.75 0.45,-1.275 1.088,-1.275c0.262,0 0.45,0.075 0.638,0.225c0.15,0.15 0.299,0.338 0.337,0.601l0.225,0l-0.038,-1.013l-0.187,0c0,0.037 -0.038,0.075 -0.075,0.075c-0.113,0 -0.413,-0.15 -0.938,-0.15l0,0Zm8.512,0l0.039,0.112l-0.75,2.175c-0.15,0.525 -0.188,0.6 -0.563,0.6l0,0.225l1.237,0l0,-0.225c-0.262,0 -0.412,-0.037 -0.412,-0.187c0,-0.038 0.038,-0.188 0.113,-0.375l0.075,-0.263l1.087,0l0.112,0.3c0.075,0.187 0.113,0.3 0.113,0.375c0,0.112 -0.112,0.15 -0.45,0.15l0,0.225l1.725,0l0,-0.225c-0.262,0 -0.375,-0.113 -0.562,-0.563l-0.9,-2.324l-0.863,0l-0.001,0Zm4.838,0c-0.075,0 -0.337,0.037 -0.675,0.037c-0.337,0 -0.713,0.038 -0.975,0.038l0,0.225c0.412,0.037 0.45,0.075 0.45,0.6l0.038,0l0,1.462c0,0.375 -0.113,0.488 -0.45,0.488l0,0.225l1.799,0l0,-0.225c-0.487,0 -0.562,-0.075 -0.562,-0.375l0,-0.637c0.15,0 0.375,0.037 0.525,0.037c0.9,0 1.2,-0.525 1.2,-0.937c0,-0.6 -0.525,-0.938 -1.35,-0.938l0,0Zm-10.875,0.037l0,0.225c0.3,0 0.412,0.076 0.412,0.451l0,1.649c0,0.413 -0.075,0.488 -0.412,0.488l0,0.225l1.687,0l0,-0.225c-0.375,0 -0.412,-0.15 -0.412,-0.45l0,-0.712l1.463,0l0,0.712c0,0.413 -0.113,0.487 -0.413,0.487l0,0.225l1.65,0l0,-0.225c-0.375,0 -0.413,-0.149 -0.413,-0.487l0,-1.687c0,-0.3 0.075,-0.413 0.413,-0.413l0,-0.225l-1.65,0l0,0.225c0.338,0 0.413,0.112 0.413,0.487l0,0.563l-1.463,0l0,-0.637c0,-0.375 0.075,-0.413 0.412,-0.451l0,-0.225l-1.687,0Zm13.238,0l0,0.225c0.337,0 0.487,0.038 0.487,0.451l0,1.687c0,0.338 -0.074,0.45 -0.524,0.45l0,0.225l2.961,0l0.076,-0.825l-0.225,0c-0.075,0.338 -0.188,0.525 -0.601,0.525l-0.562,0c-0.263,0 -0.3,0 -0.3,-0.263l0,-0.787l0.638,0c0.375,0 0.45,0.075 0.45,0.338l0.225,0l0,-1.013l-0.225,0c0,0.3 -0.113,0.375 -0.45,0.375l-0.638,0l0,-1.05l0.975,0c0.225,0 0.3,0.075 0.338,0.412l0.225,0l-0.038,-0.712l0,-0.038l-2.812,0l0,0Zm10.162,0l0,0.225c0.3,0 0.413,0.076 0.413,0.451l0,1.649c0,0.413 -0.075,0.488 -0.413,0.488l0,0.225l1.688,0l0,-0.225c-0.375,0 -0.413,-0.15 -0.413,-0.45l0,-0.712l1.463,0l0,0.712c0,0.413 -0.113,0.487 -0.413,0.487l0,0.225l1.65,0l0,-0.225c-0.375,0 -0.412,-0.149 -0.412,-0.487l0,-1.687c0,-0.3 0.037,-0.413 0.412,-0.413l0,-0.225l-1.65,0l0,0.225c0.337,0 0.413,0.112 0.413,0.487l0,0.563l-1.463,0l0,-0.637c0,-0.375 0.075,-0.413 0.413,-0.451l0,-0.225l-1.688,0l0,0Zm-30.937,0.038c-0.338,0.45 -0.637,0.75 -1.012,0.863l-0.038,0.112l0.263,0l-0.338,1.612c-0.038,0.338 0.075,0.488 0.3,0.488c0.262,0 0.637,-0.225 0.937,-0.563l-0.112,-0.112c-0.15,0.187 -0.337,0.337 -0.412,0.337c-0.075,0 -0.151,-0.075 -0.113,-0.187l0.375,-1.538l0.45,0l0.038,-0.263l-0.451,0c0.075,-0.3 0.151,-0.525 0.263,-0.75l-0.15,0l0,0.001Zm25.012,0l0,0.225c0.45,0 0.488,0.113 0.488,0.45l0,1.65c0,0.375 -0.075,0.487 -0.488,0.487l0,0.225l2.7,0l0.375,-0.899l-0.224,0c-0.413,0.562 -0.526,0.562 -0.826,0.562l-0.375,0c-0.337,0 -0.375,-0.037 -0.375,-0.337l0,-1.688c0,-0.375 0.075,-0.45 0.488,-0.45l0,-0.225l-1.763,0l0,0Zm11.212,0l0,0.225c0.338,0 0.413,0.113 0.413,0.45l0,1.688c0,0.337 -0.075,0.449 -0.413,0.449l0,0.188l1.688,0l0,-0.225c-0.413,0 -0.45,-0.15 -0.45,-0.45l0,-1.65c0,-0.337 0.075,-0.45 0.45,-0.45l0,-0.225l-1.688,0l0,0Zm2.85,0l0,0.225c0.45,0 0.488,0.113 0.488,0.45l0,1.65c0,0.375 -0.075,0.487 -0.488,0.487l0,0.225l2.701,0l0.375,-0.899l-0.225,0c-0.413,0.562 -0.526,0.562 -0.826,0.562l-0.375,0c-0.337,0 -0.375,-0.037 -0.375,-0.337l0,-1.688c0,-0.375 0.076,-0.45 0.488,-0.45l0,-0.225l-1.763,0l0,0Zm3.638,0l0,0.225c0.45,0 0.487,0.113 0.487,0.45l0,1.65c0,0.375 -0.074,0.487 -0.487,0.487l0,0.225l2.7,0l0.375,-0.899l-0.225,0c-0.412,0.562 -0.525,0.562 -0.825,0.562l-0.375,0c-0.337,0 -0.375,-0.037 -0.375,-0.337l0,-1.688c0,-0.375 0.075,-0.45 0.487,-0.45l0,-0.225l-1.762,0l0,0Zm-24.412,0.15c0.375,0 0.6,0.263 0.6,0.675c0,0.45 -0.226,0.712 -0.638,0.712c-0.075,0 -0.15,0 -0.225,-0.037l0,-1.313c0.075,-0.037 0.15,-0.037 0.263,-0.037l0,0Zm-4.463,0.375l0.45,1.162l-0.862,0l0.412,-1.162l0,0Zm-15.712,0.15c-0.713,0 -1.125,0.112 -1.575,0.562c-0.487,0.488 -0.601,0.938 -0.601,1.313c0,0.375 0.263,0.525 0.375,0.525c0.15,0 0.488,-0.3 0.826,-0.675c-0.038,0.187 -0.037,0.225 -0.037,0.337c0,0.225 0.074,0.338 0.224,0.338c0.188,0 0.488,-0.225 0.788,-0.525l0,-0.188c-0.113,0.15 -0.3,0.338 -0.375,0.338c-0.075,0 -0.075,-0.113 -0.038,-0.226l0.413,-1.799l0,0Zm-0.713,0.337l-0.225,1.125c-0.225,0.225 -0.412,0.413 -0.525,0.413c-0.15,0 -0.225,-0.15 -0.225,-0.375c0,-0.3 0.15,-0.713 0.338,-0.9c0.187,-0.188 0.337,-0.263 0.637,-0.263l0,0Zm-33.937,0.6c-0.038,0 -0.038,0 -0.038,0.038l0,0.937l0.038,0.038c1.537,1.087 6.075,1.95 10.388,1.5l0.112,0c0.075,-0.038 0.112,-0.038 0.187,0l0.037,0.037c0,0 -0.037,0.038 -0.112,0.076c-2.737,0.9 -9.038,0.637 -11.7,-1.388l-0.037,0c-0.038,-0.001 -0.038,0.037 -0.038,0.037l0,0.788c0,0.825 3.075,2.25 9.225,2.25c5.963,0 9.225,-1.463 9.188,-2.288l-0.038,-1.087l0,-0.076c-0.037,-0.225 -0.375,-0.262 -1.312,-0.262l-0.038,-0.562c0,0 0,-0.038 -0.037,-0.038c0,0 -0.038,0 -0.038,0.038c0,0.037 -0.112,0.112 -0.3,0.224c-0.825,0.45 -3.9,1.125 -7.575,1.125c-2.438,0 -4.274,-0.3 -5.399,-0.525c-1.5,-0.3 -2.289,-0.674 -2.476,-0.862l-0.037,0l0,0Z" style="fill:#fff;fill-rule:nonzero;"/></svg>